<svg xmlns="http://www.w3.org/2000/svg" version="1.1" xmlns:xlink="http://www.w3.org/1999/xlink" width="1000" height="1000"><style>
    #light-icon {
      display: inline;
    }
    #dark-icon {
      display: none;
    }

    @media (prefers-color-scheme: dark) {
      #light-icon {
        display: none;
      }
      #dark-icon {
        display: inline;
      }
    }
  </style><g id="light-icon"><svg xmlns="http://www.w3.org/2000/svg" version="1.1" xmlns:xlink="http://www.w3.org/1999/xlink" width="1000" height="1000"><g><g transform="matrix(8.333333333333334,0,0,8.333333333333334,-5.684341886080802e-14,-5.684341886080802e-14)"><svg xmlns="http://www.w3.org/2000/svg" version="1.1" xmlns:xlink="http://www.w3.org/1999/xlink" width="120" height="120"><svg xmlns="http://www.w3.org/2000/svg" width="120" height="120" viewBox="0 0 120 120" fill="none">
  <path stroke-width="5px" fill="none" stroke="black" d="M 60,30 Q20,30 20,90"></path>
  <path stroke-width="5px" fill="none" stroke="black" d="M 60,30 Q100,30 100,90"></path>
  <circle r="16" cx="60" cy="30" fill="#000000"></circle>
  <circle r="16" cx="20" cy="90" fill="#dc3220"></circle>
  <circle r="16" cx="100" cy="90" fill="#ffffff" stroke="#000000" stroke-width="3px"></circle>
</svg></svg></g></g></svg></g><g id="dark-icon"><svg xmlns="http://www.w3.org/2000/svg" version="1.1" xmlns:xlink="http://www.w3.org/1999/xlink" width="1000" height="1000"><g><g transform="matrix(8.333333333333334,0,0,8.333333333333334,-5.684341886080802e-14,-5.684341886080802e-14)"><svg xmlns="http://www.w3.org/2000/svg" version="1.1" xmlns:xlink="http://www.w3.org/1999/xlink" width="120" height="120"><svg xmlns="http://www.w3.org/2000/svg" width="120" height="120" viewBox="0 0 120 120" fill="none">
  <path stroke-width="5px" fill="none" stroke="black" d="M 60,30 Q20,30 20,90"></path>
  <path stroke-width="5px" fill="none" stroke="black" d="M 60,30 Q100,30 100,90"></path>
  <circle r="16" cx="60" cy="30" fill="#000000" stroke="#ffffff" stroke-width="3px"></circle>
  <circle r="16" cx="20" cy="90" fill="#dc3220"></circle>
  <circle r="16" cx="100" cy="90" fill="#ffffff"></circle>
</svg></svg></g></g></svg></g></svg>